<svg width="28" height="28" viewBox="0 0 28 28" fill="none" xmlns="http://www.w3.org/2000/svg">
<path d="M9.80386 18.1188C9.80868 17.6017 9.67486 17.0928 9.41632 16.645C9.15777 16.1972 8.78395 15.8268 8.33375 15.5725L0.352491 11.0642C0.217341 10.9835 0.112206 10.8609 0.0530405 10.7151C-0.00612528 10.5692 -0.0160931 10.408 0.0246495 10.2559C0.065392 10.1039 0.154621 9.96926 0.278798 9.87251C0.402974 9.77576 0.55532 9.72215 0.71272 9.71983L9.87914 9.8049C10.396 9.80979 10.9047 9.67615 11.3525 9.41786C11.8002 9.15957 12.1706 8.78606 12.4251 8.33616L16.9332 0.354788C17.0137 0.218947 17.1363 0.113151 17.2825 0.0535435C17.4287 -0.00606419 17.5904 -0.0162114 17.7429 0.0246499C17.8954 0.0655111 18.0303 0.155137 18.1271 0.279854C18.2239 0.404571 18.2773 0.557531 18.279 0.715397L18.1911 9.8812C18.1863 10.3983 18.3201 10.9072 18.5787 11.355C18.8372 11.8028 19.2111 12.1732 19.6613 12.4275L27.6429 16.9344C27.7794 17.0145 27.8859 17.1373 27.9459 17.2838C28.006 17.4303 28.0163 17.5925 27.9753 17.7454C27.9344 17.8983 27.8443 18.0336 27.7191 18.1305C27.5938 18.2273 27.4402 18.2804 27.2819 18.2816L18.1162 18.1937C17.5992 18.1889 17.0903 18.3227 16.6425 18.5813C16.1946 18.8398 15.8243 19.2136 15.5699 19.6638L11.0618 27.6452C10.9813 27.7811 10.8587 27.8868 10.7125 27.9465C10.5663 28.0061 10.4046 28.0162 10.2521 27.9753C10.0996 27.9345 9.96469 27.8449 9.86789 27.7201C9.77109 27.5954 9.71775 27.4425 9.716 27.2846L9.80386 18.1188Z" fill="#D4ECDF"/>
</svg>
