<svg width="20" height="20" viewBox="0 0 20 20" fill="none" xmlns="http://www.w3.org/2000/svg">
<path d="M6.66665 1.37124C6.8593 0.490734 7.96528 0.194386 8.57236 0.860604L12.4383 5.10304C12.5932 5.27305 12.797 5.39076 13.0218 5.4399L18.6287 6.66666C19.5093 6.8593 19.8056 7.96528 19.1394 8.57237L14.897 12.4382C14.7269 12.5932 14.6092 12.797 14.5601 13.0218L13.3333 18.6287C13.1407 19.5093 12.0347 19.8056 11.4276 19.1394L7.56174 14.897C7.4068 14.7269 7.20292 14.6092 6.97823 14.5601L1.37123 13.3333C0.490731 13.1407 0.194383 12.0347 0.860599 11.4276L5.10303 7.56173C5.27304 7.40681 5.39075 7.20293 5.43991 6.97824L6.66665 1.37124Z" fill="#D4ECDF"/>
</svg>
