<svg width="25" height="24" viewBox="0 0 25 24" fill="none" xmlns="http://www.w3.org/2000/svg">
<path fill-rule="evenodd" clip-rule="evenodd" d="M18.2143 2C18.8205 2 19.4017 2.23429 19.8304 2.65104C20.259 3.06779 20.5 3.63285 20.5 4.22222V19.7778C20.5 20.3671 20.259 20.9322 19.8304 21.349C19.4017 21.7657 18.8205 22 18.2143 22H6.78571C6.17951 22 5.5983 21.7657 5.16964 21.349C4.74099 20.9322 4.5 20.3671 4.5 19.7778V4.22222C4.5 3.63285 4.74099 3.06779 5.16964 2.65104C5.5983 2.23429 6.17951 2 6.78571 2H18.2143ZM17.0714 17.5556C16.4402 17.5556 15.9286 18.053 15.9286 18.6667C15.9286 19.2803 16.4402 19.7778 17.0714 19.7778H17.0826C17.7138 19.7778 18.2254 19.2803 18.2254 18.6667C18.2254 18.053 17.7138 17.5556 17.0826 17.5556H17.0714ZM12.9576 8.148C12.729 7.85171 12.271 7.85171 12.0424 8.148L9.32812 11.6669C9.1761 11.8643 9.1761 12.1357 9.32812 12.3331L12.0424 15.852C12.271 16.1483 12.729 16.1483 12.9576 15.852L15.6719 12.3331C15.8239 12.1357 15.8239 11.8643 15.6719 11.6669L12.9576 8.148ZM7.92857 4.22222C7.29739 4.22222 6.78571 4.71968 6.78571 5.33333C6.78571 5.94698 7.29739 6.44444 7.92857 6.44444H7.93973C8.57091 6.44444 9.08259 5.94698 9.08259 5.33333C9.08259 4.71968 8.57091 4.22222 7.93973 4.22222H7.92857Z" fill="url(#paint0_linear_6333_6190)"/>
<defs>
<linearGradient id="paint0_linear_6333_6190" x1="8.5" y1="6.28571" x2="22.1023" y2="17.7116" gradientUnits="userSpaceOnUse">
<stop stop-color="#E7AD7E"/>
<stop offset="0.601612" stop-color="#DB773D"/>
</linearGradient>
</defs>
</svg>
