<svg width="25" height="24" viewBox="0 0 25 24" fill="none" xmlns="http://www.w3.org/2000/svg">
<path d="M16.6121 17.0054C17.1162 17.0567 17.51 17.4823 17.51 18C17.51 18.5522 17.0617 18.9997 16.5095 18.9998H16.5C15.9477 18.9998 15.4995 18.5523 15.4995 18C15.4995 17.4477 15.9477 17.0002 16.5 17.0002H16.5095L16.6121 17.0054Z" fill="black" fill-opacity="0.4"/>
<path fill-rule="evenodd" clip-rule="evenodd" d="M12.4995 7.00049C12.8143 7.00049 13.1105 7.14858 13.2993 7.40039L16.2993 11.4001C16.5659 11.7557 16.566 12.2451 16.2993 12.6006L13.2993 16.6003C13.1105 16.852 12.8142 17.0002 12.4995 17.0002C12.1849 17.0002 11.8886 16.852 11.6997 16.6003L8.69971 12.6006C8.43307 12.2451 8.43312 11.7557 8.69971 11.4001L11.6997 7.40039L11.7751 7.31104C11.9627 7.11389 12.224 7.0005 12.4995 7.00049ZM10.749 12L12.4995 14.3335L14.2493 12L12.4995 9.6665L10.749 12Z" fill="black" fill-opacity="0.4"/>
<path d="M8.61182 5.00537C9.11606 5.05659 9.50977 5.48224 9.50977 6C9.50977 6.51776 9.11606 6.94341 8.61182 6.99463L8.51001 6.99976H8.49976C7.94747 6.99976 7.5 6.55228 7.5 6C7.5 5.44772 7.94747 5.00024 8.49976 5.00024H8.51001L8.61182 5.00537Z" fill="black" fill-opacity="0.4"/>
<path fill-rule="evenodd" clip-rule="evenodd" d="M17.4998 2.00024C18.2952 2.00029 19.0583 2.316 19.6208 2.87842C20.1834 3.44102 20.4998 4.20464 20.4998 5.00024V18.9998C20.4998 19.7954 20.1834 20.559 19.6208 21.1216C19.0583 21.684 18.2952 21.9997 17.4998 21.9998H7.5C6.70439 21.9998 5.94077 21.6841 5.37817 21.1216C4.81556 20.559 4.5 19.7954 4.5 18.9998V5.00024C4.5 4.20459 4.81556 3.44103 5.37817 2.87842C5.94077 2.31587 6.70439 2.00024 7.5 2.00024H17.4998ZM7.5 3.99976C7.23483 3.99976 6.98001 4.10525 6.79248 4.29272C6.60494 4.48026 6.49951 4.73503 6.49951 5.00024V18.9998C6.49951 19.265 6.60494 19.5197 6.79248 19.7073C6.98001 19.8948 7.23483 20.0002 7.5 20.0002H17.4998C17.7648 20.0002 18.0191 19.8946 18.2065 19.7073C18.394 19.5197 18.4995 19.2649 18.4995 18.9998V5.00024C18.4995 4.73507 18.394 4.48025 18.2065 4.29272C18.0191 4.10538 17.7648 3.9998 17.4998 3.99976H7.5Z" fill="black" fill-opacity="0.4"/>
</svg>
