<svg width="25" height="24" viewBox="0 0 25 24" fill="none" xmlns="http://www.w3.org/2000/svg">
<path d="M20.1016 7C20.1016 5.34315 18.7584 4 17.1016 4H7.10156C5.44471 4 4.10156 5.34315 4.10156 7V14C4.10156 15.6569 5.44471 17 7.10156 17H9.2666C9.98915 17 10.6555 17.3898 11.0098 18.0195L12.1016 19.96L13.1934 18.0195C13.5476 17.3898 14.214 17 14.9365 17H17.1016C18.7584 17 20.1016 15.6569 20.1016 14V7ZM22.1016 14C22.1016 16.7614 19.863 19 17.1016 19H14.9365L13.4092 21.7158C12.8357 22.7351 11.3674 22.7351 10.7939 21.7158L9.2666 19H7.10156C4.34014 19 2.10156 16.7614 2.10156 14V7C2.10156 4.23858 4.34014 2 7.10156 2H17.1016C19.863 2 22.1016 4.23858 22.1016 7V14Z" fill="black" fill-opacity="0.4"/>
<path d="M16.1016 7.5C16.6538 7.5 17.1016 7.94772 17.1016 8.5C17.1016 9.05228 16.6538 9.5 16.1016 9.5H8.10156C7.54928 9.5 7.10156 9.05228 7.10156 8.5C7.10156 7.94772 7.54928 7.5 8.10156 7.5H16.1016Z" fill="black" fill-opacity="0.4"/>
<path d="M13.1016 11.5C13.6538 11.5 14.1016 11.9477 14.1016 12.5C14.1016 13.0523 13.6538 13.5 13.1016 13.5H8.10156C7.54928 13.5 7.10156 13.0523 7.10156 12.5C7.10156 11.9477 7.54928 11.5 8.10156 11.5H13.1016Z" fill="black" fill-opacity="0.4"/>
</svg>
