<svg width="25" height="24" viewBox="0 0 25 24" fill="none" xmlns="http://www.w3.org/2000/svg">
<path d="M17.1016 2C19.863 2 22.1016 4.23858 22.1016 7V14C22.1016 16.7614 19.863 19 17.1016 19H14.9365L13.4092 21.7158C12.8357 22.7351 11.3674 22.7351 10.7939 21.7158L9.2666 19H7.10156C4.34014 19 2.10156 16.7614 2.10156 14V7C2.10156 4.23858 4.34014 2 7.10156 2H17.1016ZM8.10156 11.5C7.54928 11.5 7.10156 11.9477 7.10156 12.5C7.10156 13.0523 7.54928 13.5 8.10156 13.5H13.1016C13.6538 13.5 14.1016 13.0523 14.1016 12.5C14.1016 11.9477 13.6538 11.5 13.1016 11.5H8.10156ZM8.10156 7.5C7.54928 7.5 7.10156 7.94772 7.10156 8.5C7.10156 9.05228 7.54928 9.5 8.10156 9.5H16.1016C16.6538 9.5 17.1016 9.05228 17.1016 8.5C17.1016 7.94772 16.6538 7.5 16.1016 7.5H8.10156Z" fill="url(#paint0_linear_6346_9371)"/>
<defs>
<linearGradient id="paint0_linear_6346_9371" x1="7.10156" y1="6.38864" x2="21.2383" y2="20.8841" gradientUnits="userSpaceOnUse">
<stop stop-color="#E7AD7E"/>
<stop offset="0.601612" stop-color="#DB773D"/>
</linearGradient>
</defs>
</svg>
