<svg width="25" height="24" viewBox="0 0 25 24" fill="none" xmlns="http://www.w3.org/2000/svg">
<path d="M12.9023 1C18.9775 1 23.9023 5.92487 23.9023 12C23.9023 18.0751 18.9775 23 12.9023 23C6.82721 23 1.90234 18.0751 1.90234 12C1.90234 5.92487 6.82721 1 12.9023 1ZM18.0898 7.29297C17.8221 7.02518 17.4257 6.93208 17.0664 7.05176L11.6553 8.85547C11.2134 9.00275 10.8118 9.25075 10.4824 9.58008C10.1531 9.90941 9.90509 10.3111 9.75781 10.7529L7.9541 16.1641C7.83442 16.5233 7.92753 16.9197 8.19531 17.1875C8.46314 17.4551 8.85956 17.5484 9.21875 17.4287L14.6299 15.625C15.0716 15.4777 15.4735 15.2297 15.8027 14.9004C16.132 14.5711 16.3801 14.1693 16.5273 13.7275L18.3311 8.31641C18.4508 7.95722 18.3574 7.5608 18.0898 7.29297ZM14.6299 13.0947C14.5808 13.2419 14.4984 13.3766 14.3887 13.4863C14.2789 13.5961 14.1443 13.6784 13.9971 13.7275L10.4844 14.8984L11.6553 11.3857C11.7044 11.2385 11.7867 11.1039 11.8965 10.9941C12.0063 10.8844 12.1408 10.802 12.2881 10.7529L15.8008 9.58203L14.6299 13.0947Z" fill="url(#paint0_linear_6346_24436)"/>
<defs>
<linearGradient id="paint0_linear_6346_24436" x1="7.40234" y1="5.71429" x2="22.5748" y2="21.6453" gradientUnits="userSpaceOnUse">
<stop stop-color="#E7AD7E"/>
<stop offset="0.601612" stop-color="#DB773D"/>
</linearGradient>
</defs>
</svg>
