<svg width="25" height="24" viewBox="0 0 25 24" fill="none" xmlns="http://www.w3.org/2000/svg">
<path d="M20.3008 10C20.3008 9.85463 20.2692 9.71097 20.208 9.5791C20.1468 9.44717 20.0574 9.33022 19.9463 9.23633L19.9414 9.23145L12.9463 3.23633C12.7658 3.08378 12.5371 3.00098 12.3008 3.00098C12.0645 3.00098 11.8358 3.08476 11.6553 3.2373L11.6543 3.23633L4.66016 9.23145L4.65527 9.23633C4.5442 9.33022 4.45477 9.44717 4.39355 9.5791C4.33238 9.71097 4.30078 9.85463 4.30078 10V19C4.30078 19.2652 4.40621 19.5205 4.59375 19.708C4.78126 19.8954 5.03569 20 5.30078 20H19.3008C19.5659 20 19.8203 19.8954 20.0078 19.708C20.1954 19.5205 20.3008 19.2652 20.3008 19V10ZM22.3008 19C22.3008 19.7957 21.9845 20.5595 21.4219 21.1221C20.8593 21.6845 20.0963 22 19.3008 22H5.30078C4.50525 22 3.74227 21.6845 3.17969 21.1221C2.61708 20.5595 2.30078 19.7957 2.30078 19V10C2.30078 9.5639 2.39557 9.13291 2.5791 8.7373C2.76275 8.34151 3.03103 7.99066 3.36426 7.70898L10.3594 1.71387L10.3643 1.70996C10.9057 1.25232 11.5918 1.00098 12.3008 1.00098C12.921 1.00098 13.5236 1.19332 14.0273 1.54785L14.2373 1.70996L14.2422 1.71387L21.2373 7.70898L21.3594 7.81738C21.6364 8.07869 21.8617 8.39094 22.0225 8.7373C22.206 9.13291 22.3008 9.5639 22.3008 10V19Z" fill="black" fill-opacity="0.4"/>
<path d="M15.3008 16.0005C15.8531 16.0005 16.3008 16.4482 16.3008 17.0005C16.3008 17.5527 15.8531 18.0005 15.3008 18.0005H9.30078C8.7485 18.0005 8.30078 17.5527 8.30078 17.0005C8.30078 16.4482 8.7485 16.0005 9.30078 16.0005H15.3008Z" fill="black" fill-opacity="0.4"/>
</svg>
