<svg width="25" height="24" viewBox="0 0 25 24" fill="none" xmlns="http://www.w3.org/2000/svg">
<path d="M16.6121 17.0051C17.1162 17.0565 17.51 17.4821 17.51 17.9998C17.51 18.552 17.0617 18.9994 16.5095 18.9995H16.5C15.9477 18.9995 15.4995 18.552 15.4995 17.9998C15.4995 17.4475 15.9477 17 16.5 17H16.5095L16.6121 17.0051Z" fill="black" fill-opacity="0.4"/>
<path fill-rule="evenodd" clip-rule="evenodd" d="M12.4995 7.00024C12.8143 7.00024 13.1105 7.14834 13.2993 7.40015L16.2993 11.3999C16.5659 11.7555 16.566 12.2448 16.2993 12.6003L13.2993 16.6001C13.1105 16.8517 12.8142 17 12.4995 17C12.1849 17 11.8886 16.8518 11.6997 16.6001L8.69971 12.6003C8.43307 12.2448 8.43312 11.7554 8.69971 11.3999L11.6997 7.40015L11.7751 7.31079C11.9627 7.11364 12.224 7.00026 12.4995 7.00024ZM10.749 11.9998L12.4995 14.3333L14.2493 11.9998L12.4995 9.66626L10.749 11.9998Z" fill="black" fill-opacity="0.4"/>
<path d="M8.61182 5.00513C9.11606 5.05635 9.50977 5.482 9.50977 5.99976C9.50977 6.51752 9.11606 6.94317 8.61182 6.99438L8.51001 6.99951H8.49976C7.94747 6.99951 7.5 6.55204 7.5 5.99976C7.5 5.44747 7.94747 5 8.49976 5H8.51001L8.61182 5.00513Z" fill="black" fill-opacity="0.4"/>
<path fill-rule="evenodd" clip-rule="evenodd" d="M17.4998 2C18.2952 2.00005 19.0583 2.31576 19.6208 2.87817C20.1834 3.44077 20.4998 4.20439 20.4998 5V18.9995C20.4998 19.7951 20.1834 20.5587 19.6208 21.1213C19.0583 21.6838 18.2952 21.9995 17.4998 21.9995H7.5C6.70439 21.9995 5.94077 21.6839 5.37817 21.1213C4.81556 20.5587 4.5 19.7952 4.5 18.9995V5C4.5 4.20435 4.81556 3.44078 5.37817 2.87817C5.94077 2.31562 6.70439 2 7.5 2H17.4998ZM7.5 3.99951C7.23483 3.99951 6.98001 4.105 6.79248 4.29248C6.60494 4.48002 6.49951 4.73478 6.49951 5V18.9995C6.49951 19.2647 6.60494 19.5195 6.79248 19.707C6.98001 19.8945 7.23483 20 7.5 20H17.4998C17.7648 20 18.0191 19.8944 18.2065 19.707C18.394 19.5195 18.4995 19.2647 18.4995 18.9995V5C18.4995 4.73483 18.394 4.48001 18.2065 4.29248C18.0191 4.10514 17.7648 3.99956 17.4998 3.99951H7.5Z" fill="black" fill-opacity="0.4"/>
</svg>
