<svg width="20" height="13" viewBox="0 0 20 13" fill="none" xmlns="http://www.w3.org/2000/svg">
<path fill-rule="evenodd" clip-rule="evenodd" d="M19.5301 1.53295C19.5301 0.899902 19.0525 0.386719 18.4634 0.386719H17.3967C16.8076 0.386719 16.3301 0.899902 16.3301 1.53295V11.4669C16.3301 12.0999 16.8076 12.6131 17.3967 12.6131H18.4634C19.0525 12.6131 19.5301 12.0999 19.5301 11.4669V1.53295ZM12.096 2.832H13.1626C13.7517 2.832 14.2293 3.3575 14.2293 4.00574V11.4394C14.2293 12.0876 13.7517 12.6131 13.1626 12.6131H12.096C11.5069 12.6131 11.0293 12.0876 11.0293 11.4394V4.00574C11.0293 3.3575 11.5069 2.832 12.096 2.832ZM7.76419 5.48105H6.69753C6.10842 5.48105 5.63086 6.01324 5.63086 6.66973V11.4244C5.63086 12.0809 6.10842 12.6131 6.69753 12.6131H7.76419C8.3533 12.6131 8.83086 12.0809 8.83086 11.4244V6.66973C8.83086 6.01324 8.3533 5.48105 7.76419 5.48105ZM2.46341 7.92634H1.39674C0.807641 7.92634 0.330078 8.45093 0.330078 9.09804V11.4414C0.330078 12.0885 0.807641 12.6131 1.39674 12.6131H2.46341C3.05252 12.6131 3.53008 12.0885 3.53008 11.4414V9.09804C3.53008 8.45093 3.05252 7.92634 2.46341 7.92634Z" fill="white"/>
</svg>
