<svg width="16" height="17" viewBox="0 0 16 17" fill="none" xmlns="http://www.w3.org/2000/svg">
<path d="M4.07889 3.10677C5.36298 2.17116 6.93892 1.7248 8.5229 1.8483C10.107 1.97188 11.5953 2.65706 12.7189 3.78059C13.8424 4.90413 14.5276 6.39245 14.6512 7.97656C14.7747 9.56054 14.3283 11.1365 13.3927 12.4206C12.457 13.7048 11.0934 14.6127 9.54764 14.9805C8.09558 15.3259 6.5727 15.173 5.22146 14.5521L1.54699 15.7982C1.30668 15.8796 1.04086 15.8174 0.861439 15.638C0.682033 15.4586 0.619826 15.1928 0.701283 14.9525L1.94673 11.2773C1.32613 9.9263 1.17361 8.40359 1.51899 6.95182C1.88675 5.40604 2.7947 4.04247 4.07889 3.10677ZM8.41938 3.17773C7.15218 3.0789 5.89134 3.43576 4.86404 4.18424C3.83669 4.9328 3.11007 6.02379 2.81587 7.26041C2.52169 8.49699 2.67908 9.79806 3.25923 10.929C3.34153 11.0895 3.35548 11.2765 3.29764 11.4473L2.3979 14.1009L5.05219 13.2018L5.11665 13.1836C5.26912 13.1485 5.42994 13.1682 5.57042 13.2402C6.70139 13.8204 8.00246 13.9778 9.23904 13.6836C10.4757 13.3894 11.5667 12.6628 12.3152 11.6354C13.0637 10.6081 13.4206 9.34729 13.3217 8.08007C13.2229 6.81278 12.675 5.62213 11.7762 4.7233C10.8773 3.82448 9.68666 3.27659 8.41938 3.17773ZM5.3393 7.83333C5.70748 7.83333 6.00595 8.13182 6.00597 8.49999C6.00597 8.86818 5.70749 9.16666 5.3393 9.16666H5.33279C4.9646 9.16666 4.66613 8.86818 4.66613 8.49999C4.66614 8.13182 4.96461 7.83333 5.33279 7.83333H5.3393ZM8.00597 7.83333C8.37415 7.83333 8.67262 8.13182 8.67264 8.49999C8.67264 8.86818 8.37416 9.16666 8.00597 9.16666H7.99946C7.63127 9.16666 7.33279 8.86818 7.33279 8.49999C7.33281 8.13182 7.63128 7.83333 7.99946 7.83333H8.00597ZM10.6726 7.83333C11.0408 7.83333 11.3393 8.13182 11.3393 8.49999C11.3393 8.86818 11.0408 9.16666 10.6726 9.16666H10.6661C10.2979 9.16666 9.99946 8.86818 9.99946 8.49999C9.99948 8.13182 10.2979 7.83333 10.6661 7.83333H10.6726Z" fill="black" fill-opacity="0.6"/>
</svg>
