<svg width="25" height="24" viewBox="0 0 25 24" fill="none" xmlns="http://www.w3.org/2000/svg">
<path d="M17.1404 7.76L15.3364 13.171C15.2382 13.4656 15.0728 13.7333 14.8532 13.9528C14.6336 14.1724 14.366 14.3378 14.0714 14.436L8.66039 16.24L10.4644 10.829C10.5626 10.5344 10.728 10.2667 10.9476 10.0472C11.1671 9.82761 11.4348 9.66218 11.7294 9.564L17.1404 7.76Z" stroke="black" stroke-opacity="0.4" stroke-width="2" stroke-linecap="round" stroke-linejoin="round"/>
<path d="M12.9004 22C18.4232 22 22.9004 17.5228 22.9004 12C22.9004 6.47715 18.4232 2 12.9004 2C7.37754 2 2.90039 6.47715 2.90039 12C2.90039 17.5228 7.37754 22 12.9004 22Z" stroke="black" stroke-opacity="0.4" stroke-width="2" stroke-linecap="round" stroke-linejoin="round"/>
</svg>
