<svg width="25" height="24" viewBox="0 0 25 24" fill="none" xmlns="http://www.w3.org/2000/svg">
<path d="M12.5654 1.01172C13.0913 1.05829 13.5957 1.24301 14.0273 1.54688L14.2373 1.70898L14.2422 1.71289L21.2373 7.70801L21.3594 7.81641C21.6364 8.07767 21.8618 8.39004 22.0225 8.73633C22.2059 9.13182 22.3007 9.56305 22.3008 9.99902V19C22.3007 19.7956 21.9844 20.5595 21.4219 21.1221C20.8593 21.6845 20.0962 22 19.3008 22H5.30078C4.50529 22 3.74224 21.6845 3.17969 21.1221C2.61714 20.5595 2.30082 19.7956 2.30078 19V9.99902C2.30084 9.56305 2.39563 9.13182 2.5791 8.73633C2.76275 8.34061 3.0311 7.98963 3.36426 7.70801L10.3594 1.71289L10.3643 1.70898C10.9057 1.25134 11.5918 1 12.3008 1L12.5654 1.01172ZM9.30078 16C8.74872 16.0001 8.30104 16.4479 8.30078 17C8.30078 17.5523 8.74855 18.0009 9.30078 18.001H15.3008C15.8531 18.001 16.3008 17.5523 16.3008 17C16.3005 16.4479 15.8529 16 15.3008 16H9.30078Z" fill="url(#paint0_linear_6146_11179)"/>
<defs>
<linearGradient id="paint0_linear_6146_11179" x1="7.30078" y1="5.5" x2="21.8008" y2="20" gradientUnits="userSpaceOnUse">
<stop stop-color="#E7AD7E"/>
<stop offset="0.601612" stop-color="#DB773D"/>
</linearGradient>
</defs>
</svg>
