<svg width="16" height="17" viewBox="0 0 16 17" fill="none" xmlns="http://www.w3.org/2000/svg">
<path d="M13.4552 6.40001C13.4552 5.68393 13.1677 4.99737 12.6562 4.49102C12.1447 3.98467 11.4512 3.7 10.7279 3.7C10.2553 3.7 9.8874 3.766 9.54717 3.9127C9.20305 4.06109 8.84913 4.30845 8.42916 4.72423C8.19247 4.95854 7.80883 4.95854 7.57215 4.72423C7.15217 4.30845 6.79825 4.06109 6.45413 3.9127C6.11391 3.766 5.746 3.7 5.27338 3.7C4.55006 3.7 3.85657 3.98467 3.34511 4.49102C2.83365 4.99737 2.54611 5.68393 2.54611 6.40001C2.54611 7.36961 3.10338 8.17497 3.84937 8.94182L8.00065 13.0516L11.8187 9.27171C12.7231 8.39441 13.4552 7.50159 13.4552 6.40001ZM14.6673 6.40001C14.6673 8.04378 13.5719 9.24929 12.671 10.1237L12.6716 10.1242L8.42916 14.3243C8.19247 14.5586 7.80883 14.5586 7.57215 14.3243L3.33683 10.1313C2.42433 9.258 1.33398 8.05181 1.33398 6.40001C1.33398 5.36567 1.74873 4.37339 2.48751 3.642C3.22629 2.9106 4.22859 2.5 5.27338 2.5C5.86743 2.5 6.4088 2.584 6.93827 2.81231C7.30992 2.97257 7.65628 3.19673 8.00065 3.48496C8.34503 3.19673 8.69138 2.97257 9.06303 2.81231C9.59251 2.584 10.1339 2.5 10.7279 2.5C11.7727 2.5 12.775 2.9106 13.5138 3.642C14.2526 4.37339 14.6673 5.36567 14.6673 6.40001Z" fill="black" fill-opacity="0.6"/>
</svg>
