<svg width="16" height="17" viewBox="0 0 16 17" fill="none" xmlns="http://www.w3.org/2000/svg">
<path d="M11.9993 3.83301C11.9993 3.6562 11.9291 3.48668 11.804 3.36165C11.679 3.23663 11.5095 3.16634 11.3327 3.16634H4.66602C4.4892 3.16634 4.31969 3.23663 4.19466 3.36165C4.06964 3.48668 3.99935 3.6562 3.99935 3.83301V13.3506L7.66862 11.2542L7.7474 11.2158C7.93568 11.1389 8.15072 11.1517 8.33008 11.2542L11.9993 13.3506V3.83301ZM13.3327 14.4997C13.3327 14.7373 13.2062 14.9572 13.0007 15.0765C12.7951 15.1957 12.5416 15.1963 12.3353 15.0785L7.99935 12.6006L3.66341 15.0785C3.4571 15.1963 3.20358 15.1957 2.99805 15.0765C2.7925 14.9572 2.66602 14.7373 2.66602 14.4997V3.83301C2.66602 3.30257 2.87688 2.79402 3.25195 2.41895C3.62703 2.04387 4.13558 1.83301 4.66602 1.83301H11.3327C11.8631 1.83301 12.3717 2.04387 12.7467 2.41895C13.1218 2.79402 13.3327 3.30257 13.3327 3.83301V14.4997Z" fill="black" fill-opacity="0.6"/>
</svg>
