<svg width="16" height="17" viewBox="0 0 16 17" fill="none" xmlns="http://www.w3.org/2000/svg">
<path d="M12.6673 15.167L3.33398 15.167C2.80355 15.167 2.29499 14.9561 1.91992 14.5811C1.54485 14.206 1.33398 13.6974 1.33398 13.167L1.33398 10.5003C1.33398 10.1321 1.63246 9.83366 2.00065 9.83366C2.36884 9.83366 2.66732 10.1321 2.66732 10.5003L2.66732 13.167C2.66732 13.3438 2.73761 13.5133 2.86263 13.6383C2.98765 13.7634 3.15717 13.8337 3.33398 13.8337L12.6673 13.8337C12.8441 13.8337 13.0136 13.7634 13.1387 13.6383C13.2637 13.5133 13.334 13.3438 13.334 13.167L13.334 10.5003C13.334 10.1321 13.6325 9.83366 14.0007 9.83366C14.3688 9.83366 14.6673 10.1321 14.6673 10.5003L14.6673 13.167C14.6673 13.6974 14.4565 14.206 14.0814 14.5811C13.7063 14.9561 13.1978 15.167 12.6673 15.167ZM4.19596 6.30501C3.95189 6.06094 3.93682 5.67494 4.15039 5.41309L4.19596 5.36231L7.5293 2.02897C7.78965 1.76862 8.21166 1.76862 8.472 2.02897L11.8053 5.36231C12.0657 5.62265 12.0657 6.04466 11.8053 6.30501C11.545 6.56536 11.123 6.56536 10.8626 6.30501L8.66732 4.1097L8.66732 10.5003C8.66732 10.8685 8.36884 11.167 8.00065 11.167C7.63246 11.167 7.33398 10.8685 7.33398 10.5003L7.33398 4.1097L5.13867 6.30501L5.08789 6.35059C4.82604 6.56415 4.44004 6.54909 4.19596 6.30501Z" fill="black" fill-opacity="0.6"/>
</svg>
