<svg width="16" height="17" viewBox="0 0 16 17" fill="none" xmlns="http://www.w3.org/2000/svg">
<path d="M12.4297 1.86224C13.0131 1.68276 13.662 1.63447 14.194 1.85573L14.2988 1.90325L14.3906 1.95924C14.4775 2.02192 14.5486 2.10468 14.597 2.20143C14.872 2.75143 14.8294 3.44835 14.638 4.07057C14.439 4.71725 14.0481 5.39488 13.472 5.97096L11.3965 8.04583L12.5182 13.1565C12.5191 13.1606 12.52 13.1648 12.5208 13.1689C12.6472 13.8009 12.3649 14.3101 11.9342 14.6331C11.8875 14.6681 11.8361 14.6966 11.7819 14.7184L11.4486 14.8518C10.8943 15.0735 10.2171 14.9881 9.80077 14.4332C9.79279 14.4226 9.78532 14.4111 9.77799 14.4L7.81314 11.4254L6.66731 12.1897V13.8329C6.66731 14.0098 6.59702 14.1793 6.472 14.3043L5.80533 14.971C5.6641 15.1122 5.46698 15.1827 5.26822 15.163C5.06949 15.1433 4.89007 15.0356 4.77929 14.8694L3.51952 12.9801L1.63085 11.721C1.46468 11.6102 1.35693 11.4308 1.33723 11.232C1.31755 11.0333 1.38806 10.8361 1.52929 10.6949L2.19596 10.0283L2.24478 9.98398C2.36342 9.88676 2.51258 9.83294 2.66731 9.83294H4.31054L5.07421 8.68645L2.10025 6.72226C2.08915 6.71493 2.07769 6.70746 2.06705 6.69948C1.51218 6.28316 1.42674 5.60592 1.64843 5.05169C1.66161 5.01879 1.67772 4.98703 1.69596 4.95664L1.89582 4.6233C2.16258 4.13465 2.66961 3.89261 3.21809 3.96054L3.33137 3.97942L3.34374 3.98203L8.45377 5.10312L10.5293 3.02825C11.1054 2.45217 11.783 2.06121 12.4297 1.86224ZM13.4557 3.04388C13.3004 3.03542 13.0872 3.05526 12.8216 3.13698C12.385 3.27135 11.8959 3.54709 11.472 3.97096L9.13866 6.30429C8.97792 6.46503 8.74612 6.53272 8.52408 6.48398L3.06965 5.28672L3.05207 5.28476C3.04764 5.2929 3.04382 5.30156 3.03905 5.3095L2.8776 5.57838C2.86968 5.60565 2.86743 5.62293 2.86783 5.63177L6.36783 7.94362C6.51578 8.04133 6.61914 8.19366 6.65429 8.36744C6.68943 8.54122 6.65368 8.72188 6.55533 8.8694L5.222 10.8694C5.09835 11.0549 4.89021 11.1663 4.66731 11.1663H3.20247L4.37043 11.9449L4.42317 11.984C4.4741 12.0257 4.51867 12.0748 4.55533 12.1298L5.33398 13.2978V11.8329C5.33398 11.61 5.44538 11.4019 5.63085 11.2783L7.63085 9.94492L7.68749 9.91106C7.8233 9.8388 7.98069 9.8152 8.1328 9.84596C8.30659 9.88111 8.45892 9.98446 8.55663 10.1324L10.8678 13.6324C10.8792 13.633 10.9074 13.6325 10.9531 13.6142L11.1816 13.5224C11.2041 13.4996 11.2131 13.4866 11.2148 13.4827C11.2161 13.4799 11.217 13.4772 11.2174 13.4729C11.2179 13.4681 11.2183 13.4546 11.2135 13.4306V13.4299L10.0163 7.97617C9.96753 7.75413 10.0352 7.52233 10.196 7.36159L12.5293 5.02825C12.9532 4.60438 13.2289 4.11526 13.3633 3.67864C13.4451 3.41266 13.4643 3.19924 13.4557 3.04388Z" fill="#DB773D"/>
</svg>
