<svg width="18" height="13" viewBox="0 0 18 13" fill="none" xmlns="http://www.w3.org/2000/svg">
<path fill-rule="evenodd" clip-rule="evenodd" d="M9.1006 2.80222C11.5877 2.80232 13.9797 3.72441 15.7822 5.37789C15.918 5.50554 16.1349 5.50393 16.2686 5.37428L17.5661 4.11081C17.6338 4.04505 17.6715 3.95597 17.671 3.86329C17.6704 3.77061 17.6316 3.68197 17.5631 3.61697C12.8321 -0.757741 5.36837 -0.757741 0.637353 3.61697C0.568821 3.68192 0.529937 3.77054 0.529305 3.86322C0.528673 3.9559 0.566345 4.045 0.633986 4.11081L1.93185 5.37428C2.06545 5.50413 2.28257 5.50574 2.41822 5.37789C4.22096 3.7243 6.61324 2.80221 9.1006 2.80222ZM9.09724 7.0225C10.4546 7.02241 11.7634 7.53415 12.7696 8.45828C12.9056 8.58943 13.12 8.58659 13.2527 8.45187L14.5399 7.13256C14.6077 7.06336 14.6454 6.96948 14.6444 6.87193C14.6434 6.77438 14.6039 6.6813 14.5347 6.61351C11.4709 3.72266 6.72618 3.72266 3.66234 6.61351C3.59314 6.6813 3.55365 6.77443 3.55274 6.87201C3.55183 6.96959 3.58958 7.06346 3.65751 7.13256L4.94442 8.45187C5.07708 8.58659 5.29144 8.58943 5.42753 8.45828C6.43298 7.53476 7.74082 7.02307 9.09724 7.0225ZM11.6217 9.81605C11.6236 9.9214 11.5865 10.023 11.5192 10.0968L9.34257 12.5515C9.27876 12.6236 9.19177 12.6642 9.101 12.6642C9.01023 12.6642 8.92324 12.6236 8.85943 12.5515L6.6824 10.0968C6.61515 10.0229 6.57815 9.92131 6.58015 9.81596C6.58214 9.71061 6.62295 9.61085 6.69294 9.54023C8.08304 8.22634 10.119 8.22634 11.5091 9.54023C11.579 9.6109 11.6197 9.7107 11.6217 9.81605Z" fill="white"/>
</svg>
