<svg width="24" height="24" viewBox="0 0 24 24" fill="none" xmlns="http://www.w3.org/2000/svg">
<path d="M18.0492 4.33474C18.4955 3.88842 19.2189 3.88842 19.6653 4.33474C20.1116 4.78106 20.1116 5.50451 19.6653 5.95083L13.6161 12L19.6653 18.0492L19.7434 18.1362C20.1095 18.5851 20.0837 19.2468 19.6653 19.6653C19.2468 20.0837 18.5851 20.1095 18.1362 19.7434L18.0492 19.6653L12 13.6161L5.95083 19.6653C5.50451 20.1116 4.78106 20.1116 4.33474 19.6653C3.88842 19.2189 3.88842 18.4955 4.33474 18.0492L10.3839 12L4.33474 5.95083C3.88842 5.50451 3.88842 4.78106 4.33474 4.33474C4.78106 3.88842 5.50451 3.88842 5.95083 4.33474L12 10.3839L18.0492 4.33474Z" fill="white"/>
</svg>
