<svg width="157" height="32" viewBox="0 0 157 32" fill="none" xmlns="http://www.w3.org/2000/svg">
<path d="M4.59375 31.2148C2.05859 31.2148 0.683594 29.582 0.683594 26.5742V7.28125C0.683594 3.69336 2.78906 1.45898 6.18359 1.45898C9.10547 1.45898 11.125 2.96289 12.457 6.72266L16.3887 17.7656H16.6895L20.5781 6.67969C21.9102 2.87695 23.8223 1.45898 26.8945 1.45898C30.3535 1.45898 32.3301 3.58594 32.3301 7.28125V26.5742C32.3301 29.4961 30.8047 31.2148 28.2051 31.2148C25.6699 31.2148 24.2949 29.582 24.2949 26.5742V14.6504H24.1875L20.2344 25.4355C19.332 27.9062 18.1504 28.6582 16.5391 28.6582C14.9062 28.6582 13.6816 27.8203 12.8008 25.4355L8.82617 14.6504H8.71875V26.5742C8.71875 29.4961 7.19336 31.2148 4.59375 31.2148ZM39.6562 31.2148C37.25 31.2148 35.5527 29.6895 35.5527 27.541C35.5527 26.6816 35.7891 25.6289 36.4551 23.6523L41.6113 7.9043C43.1367 3.26367 45.3281 1.45898 49.4102 1.45898C53.4922 1.45898 55.6406 3.24219 57.166 7.9043L62.3008 23.6523C62.8164 25.2637 63.0527 26.3809 63.0527 27.3047C63.0527 29.668 61.3555 31.2148 58.7773 31.2148C56.3926 31.2148 54.9961 29.8828 54.1367 26.7891L53.7715 25.457H44.5547L44.1895 26.7891C43.3086 29.9688 42.041 31.2148 39.6562 31.2148ZM46.2734 19.1191H52.0957L49.4531 9.12891H48.9805L46.2734 19.1191ZM73.623 31.2148C70.8086 31.2148 69.1113 29.4531 69.1113 26.5312V8.89258H64.4922C62.5801 8.89258 61.0762 7.30273 61.0762 5.2832C61.0762 3.26367 62.5801 1.67383 64.4922 1.67383H82.8184C84.7305 1.67383 86.1699 3.24219 86.1699 5.2832C86.1699 7.32422 84.7305 8.89258 82.8184 8.89258H78.1348V26.5312C78.1348 29.4316 76.416 31.2148 73.623 31.2148ZM87.0078 17.3145V14.9727C87.0078 6.37891 91.9277 1.17969 100.457 1.17969C104.453 1.17969 108.17 2.36133 110.318 4.35938C111.715 5.66992 112.553 7.19531 112.553 8.61328C112.553 10.6973 111.049 12.1367 108.922 12.1367C107.611 12.1367 106.58 11.6641 105.184 10.5039C103.658 9.23633 102.541 8.67773 101.08 8.67773C97.8574 8.67773 96.0312 11.1699 96.0312 15.4883V16.8203C96.0312 21.5898 97.793 24.125 101.08 24.125C102.541 24.125 103.852 23.5449 105.312 22.2988C106.752 21.0742 107.697 20.6445 108.965 20.6445C111.092 20.6445 112.596 22.084 112.596 24.168C112.596 26.1016 111.328 27.9707 109.244 29.3242C107.074 30.7637 104.023 31.6445 100.457 31.6445C91.7344 31.6445 87.0078 26.4453 87.0078 17.3145ZM138.549 31.2148C135.648 31.2148 134.037 29.4961 134.037 26.3809V19.8066H125.551V26.3809C125.551 29.4746 123.939 31.2148 121.039 31.2148C118.139 31.2148 116.527 29.4961 116.527 26.3809V6.29297C116.527 3.17773 118.139 1.45898 121.039 1.45898C123.939 1.45898 125.551 3.19922 125.551 6.29297V12.8457H134.037V6.29297C134.037 3.17773 135.648 1.45898 138.549 1.45898C141.449 1.45898 143.061 3.19922 143.061 6.29297V26.3809C143.061 29.4746 141.449 31.2148 138.549 31.2148ZM148.26 18.6465L147.615 5.1543C147.486 2.61914 149.42 0.556641 152.191 0.556641C154.963 0.556641 156.918 2.61914 156.789 5.1543L156.059 18.6465C155.93 20.8594 154.254 22.3203 152.17 22.3203C150.021 22.3203 148.367 20.7734 148.26 18.6465ZM147.723 27.498C147.723 25.0488 149.742 23.5664 152.213 23.5664C154.662 23.5664 156.682 25.0488 156.682 27.498C156.682 29.9688 154.662 31.4512 152.213 31.4512C149.742 31.4512 147.723 29.9688 147.723 27.498Z" fill="#95C6B3"/>
</svg>
