<svg width="119" height="28" viewBox="0 0 119 28" fill="none" xmlns="http://www.w3.org/2000/svg">
<g clip-path="url(#clip0_6531_7628)">
<path d="M39.1698 7C40.1394 7.00002 41.0391 7.49517 41.5458 8.30736L45.7078 14.9828L49.7336 8.33817C50.236 7.50873 51.1458 7.00013 52.1281 7H53.1069C54.0285 7 54.7767 7.73295 54.7794 8.63853L54.8117 19.6866C54.8154 20.9629 53.7631 22 52.4642 22C51.173 21.9999 50.1247 20.9746 50.1177 19.7059L50.0922 15.158L47.3567 19.6818C46.9936 20.2819 46.3351 20.6493 45.6245 20.6493C44.9273 20.6492 44.2802 20.2949 43.9129 19.7126L41.1881 15.3929V19.6962C41.1881 20.9683 40.1391 21.9999 38.8446 22C37.5499 22 36.5 20.9684 36.5 19.6962V8.64335C36.5 7.73593 37.249 7 38.1724 7H39.1698Z" fill="#DB773D"/>
<path d="M68.8634 7C69.9353 7.00006 70.8043 7.85391 70.8043 8.90713C70.8043 9.96034 69.9353 10.8142 68.8634 10.8143H63.4669C63.1592 10.8144 62.9094 11.0597 62.9094 11.362V12.5712H68.0561C69.0798 12.5712 69.9098 13.3867 69.9098 14.3927C69.9098 15.3986 69.0798 16.2141 68.0561 16.2141H62.9094V17.638C62.9095 17.9403 63.1593 18.1856 63.4669 18.1857H69.1466C70.2185 18.1857 71.0875 19.0396 71.0875 20.0929C71.0873 21.146 70.2184 22 69.1466 22H60.6256C59.3943 22 58.3957 21.0188 58.3957 19.8089V9.19113C58.3957 7.98124 59.3943 7 60.6256 7H68.8634Z" fill="#DB773D"/>
<path d="M84.6278 7C85.6996 7.00006 86.5687 7.85391 86.5687 8.90713C86.5686 9.96034 85.6996 10.8142 84.6278 10.8143H79.2312C78.9235 10.8144 78.6738 11.0597 78.6738 11.362V12.5712H83.8204C84.8442 12.5712 85.6741 13.3867 85.6741 14.3927C85.6741 15.3986 84.8442 16.2141 83.8204 16.2141H78.6738V17.638C78.6738 17.9403 78.9236 18.1856 79.2312 18.1857H84.9109C85.9828 18.1857 86.8518 19.0396 86.8518 20.0929C86.8516 21.146 85.9827 22 84.9109 22H75.8325C74.909 22 74.16 21.2641 74.16 20.3567V8.64335C74.16 7.73593 74.909 7 75.8325 7H84.6278Z" fill="#DB773D"/>
<path d="M92.2248 7C93.4954 7 94.5252 8.01202 94.5253 9.26045V17.5311C94.5255 17.8333 94.7752 18.0777 95.0828 18.0779H99.9669C101.069 18.078 101.962 18.9562 101.962 20.039C101.962 21.1218 101.069 21.9999 99.9669 22H91.5968C90.6733 22 89.9243 21.2641 89.9243 20.3567V9.26045C89.9245 8.01209 90.9543 7.00012 92.2248 7Z" fill="#DB773D"/>
<path fill-rule="evenodd" clip-rule="evenodd" d="M110.474 7C111.639 7 112.709 7.18224 113.684 7.54586C114.66 7.90943 115.506 8.42745 116.224 9.10064C116.942 9.76048 117.498 10.5417 117.891 11.4439C118.297 12.3327 118.5 13.3162 118.5 14.3936C118.5 15.4575 118.297 16.441 117.891 17.3434C117.498 18.2456 116.942 19.0335 116.224 19.7068C115.506 20.3665 114.66 20.8778 113.684 21.2414C112.709 21.605 111.639 21.7872 110.474 21.7872C109.322 21.7872 108.252 21.605 107.263 21.2414C106.288 20.8778 105.441 20.3665 104.724 19.7068C104.006 19.0335 103.443 18.2456 103.036 17.3434C102.644 16.441 102.448 15.4575 102.448 14.3936C102.448 13.3162 102.644 12.3327 103.036 11.4439C103.443 10.5416 104.006 9.7605 104.724 9.10064C105.441 8.42745 106.288 7.90943 107.263 7.54586C108.252 7.18224 109.322 7 110.474 7ZM110.474 10.8585C110.027 10.8585 109.607 10.9395 109.214 11.1011C108.835 11.2628 108.496 11.4981 108.198 11.8078C107.913 12.104 107.69 12.4744 107.528 12.9187C107.365 13.3497 107.284 13.8415 107.284 14.3936C107.284 14.9458 107.365 15.4443 107.528 15.8887C107.69 16.3195 107.913 16.69 108.198 16.9997C108.496 17.2959 108.835 17.5245 109.214 17.6861C109.607 17.8477 110.027 17.9287 110.474 17.9287C110.921 17.9287 111.334 17.8477 111.713 17.6861C112.106 17.5245 112.445 17.2959 112.729 16.9997C113.027 16.69 113.257 16.3196 113.42 15.8887C113.583 15.4443 113.664 14.9458 113.664 14.3936C113.664 13.8415 113.583 13.3497 113.42 12.9187C113.257 12.4744 113.027 12.104 112.729 11.8078C112.445 11.4981 112.106 11.2627 111.713 11.1011C111.334 10.9395 110.921 10.8585 110.474 10.8585Z" fill="#DB773D"/>
<path d="M14.5781 0C22.2669 0 28.5 6.26801 28.5 14C28.5 21.732 22.2669 28 14.5781 28C11.5221 27.9999 8.69823 27.0066 6.40217 25.3278L1.95269 26.2251C1.066 26.4037 0.301659 25.5871 0.546163 24.7225L1.92674 19.8404C1.11373 18.0623 0.656163 16.0853 0.656163 14C0.656163 6.26816 6.88942 0.000234678 14.5781 0Z" fill="#DB773D"/>
<path d="M15.6241 9.1068C16.3003 8.85466 17.0329 8.84146 17.7804 9.08065C18.5917 9.34026 19.202 9.81502 19.5916 10.4804C19.9636 11.1157 20.0814 11.8348 20.0977 12.5066C20.1139 13.1807 20.029 13.8939 19.9256 14.5707C19.8734 14.9122 19.8137 15.259 19.7569 15.5943C19.6994 15.9333 19.6441 16.2629 19.5964 16.5869C19.5644 16.804 19.6155 16.8923 19.6298 16.9138C19.6488 16.9422 19.6823 16.9696 19.7393 16.9823C19.7954 16.9947 19.8727 16.9903 19.95 16.9487C20.0227 16.9096 20.1195 16.8243 20.1955 16.6366C20.4127 16.0998 21.0173 15.8433 21.5458 16.0638C22.0744 16.2844 22.327 16.8988 22.1098 17.4357C21.5943 18.7096 20.3935 19.2795 19.2972 19.0359C18.7598 18.9165 18.2546 18.5992 17.9169 18.0935C17.5746 17.5808 17.4513 16.9459 17.5499 16.2761C17.6014 15.9263 17.6604 15.5756 17.7177 15.2377C17.7756 14.8962 17.8315 14.5689 17.8804 14.2486C17.9793 13.6015 18.0401 13.0386 18.0285 12.5581C18.0168 12.0752 17.9332 11.7598 17.813 11.5545C17.7103 11.3791 17.5373 11.2067 17.1585 11.0855C16.8198 10.9771 16.5579 10.998 16.3374 11.0803C16.1027 11.1678 15.8452 11.3519 15.582 11.6749C15.0441 12.335 14.6043 13.4256 14.3601 14.7303L14.3575 14.7468C14.3549 14.7632 14.3509 14.7879 14.3459 14.8192C14.3359 14.8819 14.3214 14.9728 14.3034 15.0856C14.2673 15.3115 14.2167 15.6262 14.1592 15.9805C14.0444 16.6878 13.9008 17.5596 13.7879 18.2029C13.6876 18.7742 13.1503 19.1551 12.5879 19.0534C12.0253 18.9515 11.6503 18.4055 11.7505 17.8341C11.8608 17.2053 12.0024 16.3452 12.117 15.6388C12.1742 15.2864 12.2244 14.9733 12.2604 14.7486C12.2783 14.6363 12.293 14.5457 12.3029 14.4835C12.3063 14.4622 12.3087 14.444 12.311 14.4295C12.3985 13.3589 12.4233 12.4572 12.308 11.8083C12.249 11.476 12.171 11.3002 12.1085 11.2102C12.0562 11.1351 12.0132 11.1158 11.9707 11.1055C11.5936 11.0141 11.3438 11.0519 11.1706 11.1186C10.989 11.1886 10.8135 11.3207 10.641 11.5323C10.2699 11.9875 10.038 12.6413 9.84569 13.2337C9.72838 13.5952 9.56804 14.4533 9.4109 15.4722C9.25921 16.4559 9.12436 17.4926 9.04694 18.1445C8.9784 18.7206 8.4627 19.1316 7.89538 19.0621C7.32815 18.9925 6.92357 18.4686 6.9919 17.8925C7.07155 17.2219 7.20993 16.1602 7.36617 15.147C7.51703 14.1688 7.69966 13.131 7.87993 12.5755C8.06007 12.0205 8.39228 10.9949 9.04694 10.1918C9.38729 9.77435 9.84096 9.38256 10.4371 9.15301C11.0418 8.92023 11.7189 8.8834 12.4514 9.06103C13.2275 9.24928 13.7029 9.75304 13.9922 10.3291C14.4238 9.80102 14.9644 9.35282 15.6241 9.1068Z" fill="white"/>
<path d="M21.4806 13.7943C21.7582 13.2826 22.3966 13.0992 22.9068 13.3846C23.4171 13.6701 23.6059 14.3165 23.3283 14.8284C23.0507 15.3402 22.4119 15.5236 21.9016 15.2381C21.3914 14.9526 21.2029 14.3062 21.4806 13.7943Z" fill="white"/>
<path d="M23.7154 13.8371C23.8542 13.5811 24.1737 13.489 24.4288 13.6317C24.6839 13.7745 24.7779 14.0977 24.6391 14.3536C24.5003 14.6095 24.1813 14.7012 23.9262 14.5585C23.6711 14.4158 23.5767 14.093 23.7154 13.8371Z" fill="white"/>
<path d="M21.1745 12.4155C21.3133 12.1596 21.6328 12.0675 21.8879 12.2102C22.143 12.3529 22.2373 12.6762 22.0986 12.9321C21.9598 13.188 21.6404 13.2797 21.3853 13.137C21.1303 12.9942 21.0359 12.6714 21.1745 12.4155Z" fill="white"/>
<path d="M22.8849 12.3152C23.0237 12.0593 23.3431 11.9676 23.5983 12.1104C23.8533 12.2531 23.9474 12.5764 23.8086 12.8322C23.6697 13.088 23.3503 13.1798 23.0952 13.0371C22.8402 12.8944 22.7462 12.5711 22.8849 12.3152Z" fill="white"/>
</g>
<defs>
<clipPath id="clip0_6531_7628">
<rect width="118" height="28" fill="white" transform="translate(0.5)"/>
</clipPath>
</defs>
</svg>
