<svg width="24" height="24" viewBox="0 0 24 24" fill="none" xmlns="http://www.w3.org/2000/svg">
<path d="M19 17C19 15.8954 18.1046 15 17 15C15.8954 15 15 15.8954 15 17C15 18.1046 15.8954 19 17 19C18.1046 19 19 18.1046 19 17ZM7 3C8.86384 3 10.43 4.27477 10.874 6H19C19.5523 6 20 6.44772 20 7C20 7.55228 19.5523 8 19 8H10.874C10.43 9.72523 8.86384 11 7 11C4.79086 11 3 9.20914 3 7C3 4.79086 4.79086 3 7 3ZM21 17C21 19.2091 19.2091 21 17 21C15.1362 21 13.57 19.7252 13.126 18H5C4.44772 18 4 17.5523 4 17C4 16.4477 4.44772 16 5 16H13.126C13.57 14.2748 15.1362 13 17 13C19.2091 13 21 14.7909 21 17ZM5 7C5 8.10457 5.89543 9 7 9C8.10457 9 9 8.10457 9 7C9 5.89543 8.10457 5 7 5C5.89543 5 5 5.89543 5 7Z" fill="black" fill-opacity="0.6"/>
</svg>
