<svg width="18" height="18" viewBox="0 0 18 18" fill="none" xmlns="http://www.w3.org/2000/svg">
<path d="M16 14C16 12.8954 15.1046 12 14 12C12.8954 12 12 12.8954 12 14C12 15.1046 12.8954 16 14 16C15.1046 16 16 15.1046 16 14ZM4 0C5.86384 0 7.42998 1.27477 7.87402 3H16C16.5523 3 17 3.44772 17 4C17 4.55228 16.5523 5 16 5H7.87402C7.42998 6.72523 5.86384 8 4 8C1.79086 8 0 6.20914 0 4C0 1.79086 1.79086 0 4 0ZM18 14C18 16.2091 16.2091 18 14 18C12.1362 18 10.57 16.7252 10.126 15H2C1.44772 15 1 14.5523 1 14C1 13.4477 1.44772 13 2 13H10.126C10.57 11.2748 12.1362 10 14 10C16.2091 10 18 11.7909 18 14ZM2 4C2 5.10457 2.89543 6 4 6C5.10457 6 6 5.10457 6 4C6 2.89543 5.10457 2 4 2C2.89543 2 2 2.89543 2 4Z" fill="black" fill-opacity="0.6"/>
</svg>
