<svg width="83" height="15" viewBox="0 0 83 15" fill="none" xmlns="http://www.w3.org/2000/svg">
<path d="M3.16984 0C4.13936 1.50171e-05 5.03911 0.495173 5.54576 1.30736L9.70778 7.9828L13.7336 1.33817C14.236 0.50873 15.1458 0.000125635 16.1281 0H17.1069C18.0285 0 18.7767 0.732952 18.7794 1.63853L18.8117 12.6866C18.8154 13.9629 17.7631 15 16.4642 15C15.173 14.9999 14.1247 13.9746 14.1177 12.7059L14.0922 8.15801L11.3567 12.6818C10.9936 13.2819 10.3351 13.6493 9.6245 13.6493C8.92734 13.6492 8.28016 13.2949 7.91286 12.7126L5.18815 8.39291V12.6962C5.1881 13.9683 4.13915 14.9999 2.84456 15C1.54986 15 0.500045 13.9684 0.5 12.6962V1.64335C0.5 0.735929 1.24896 0 2.17245 0H3.16984Z" fill="#DB773D"/>
<path d="M32.8634 0C33.9353 6.21601e-05 34.8043 0.853906 34.8043 1.90713C34.8043 2.96034 33.9353 3.8142 32.8634 3.81426H27.4669C27.1592 3.81442 26.9094 4.05967 26.9094 4.36204V5.57121H32.0561C33.0798 5.57121 33.9098 6.38675 33.9098 7.39266C33.9098 8.39858 33.0798 9.21411 32.0561 9.21411H26.9094V10.638C26.9095 10.9403 27.1593 11.1856 27.4669 11.1857H33.1466C34.2185 11.1857 35.0875 12.0396 35.0875 13.0929C35.0873 14.146 34.2184 15 33.1466 15H24.6256C23.3943 15 22.3957 14.0188 22.3957 12.8089V2.19113C22.3957 0.981239 23.3943 0 24.6256 0H32.8634Z" fill="#DB773D"/>
<path d="M48.6278 0C49.6996 6.21601e-05 50.5687 0.853906 50.5687 1.90713C50.5686 2.96034 49.6996 3.8142 48.6278 3.81426H43.2312C42.9235 3.81442 42.6738 4.05967 42.6738 4.36204V5.57121H47.8204C48.8442 5.57121 49.6741 6.38675 49.6741 7.39266C49.6741 8.39858 48.8442 9.21411 47.8204 9.21411H42.6738V10.638C42.6738 10.9403 42.9236 11.1856 43.2312 11.1857H48.9109C49.9828 11.1857 50.8518 12.0396 50.8518 13.0929C50.8516 14.146 49.9827 15 48.9109 15H39.8325C38.909 15 38.16 14.2641 38.16 13.3567V1.64335C38.16 0.735929 38.909 0 39.8325 0H48.6278Z" fill="#DB773D"/>
<path d="M56.2248 0C57.4954 0 58.5252 1.01202 58.5253 2.26045V10.5311C58.5255 10.8333 58.7752 11.0777 59.0828 11.0779H63.9669C65.0688 11.078 65.9616 11.9562 65.9617 13.039C65.9617 14.1218 65.0688 14.9999 63.9669 15H55.5968C54.6733 15 53.9243 14.2641 53.9243 13.3567V2.26045C53.9245 1.01209 54.9543 0.000118864 56.2248 0Z" fill="#DB773D"/>
<path fill-rule="evenodd" clip-rule="evenodd" d="M74.4738 0C75.6388 2.66036e-08 76.7092 0.182236 77.6845 0.545857C78.6596 0.90943 79.5062 1.42745 80.224 2.10064C80.9419 2.76048 81.4978 3.54166 81.8906 4.44387C82.297 5.33272 82.5 6.31623 82.5 7.39362C82.5 8.45755 82.297 9.44105 81.8906 10.3434C81.4978 11.2456 80.9419 12.0335 80.224 12.7068C79.5062 13.3665 78.6596 13.8778 77.6845 14.2414C76.7092 14.605 75.6388 14.7872 74.4738 14.7872C73.3224 14.7872 72.252 14.605 71.2631 14.2414C70.2881 13.8778 69.4414 13.3665 68.7236 12.7068C68.0057 12.0335 67.4428 11.2456 67.0365 10.3434C66.6436 9.44105 66.4476 8.45755 66.4476 7.39362C66.4476 6.31623 66.6436 5.33272 67.0365 4.44387C67.4428 3.54162 68.0057 2.7605 68.7236 2.10064C69.4414 1.42745 70.288 0.909429 71.2631 0.545857C72.252 0.182236 73.3224 0 74.4738 0ZM74.4738 3.85855C74.0268 3.85855 73.6067 3.93954 73.2138 4.10115C72.8346 4.26275 72.4958 4.4981 72.1978 4.80778C71.9134 5.104 71.6902 5.47445 71.5277 5.91875C71.3651 6.3497 71.2837 6.84146 71.2837 7.39362C71.2837 7.94579 71.3651 8.44429 71.5277 8.88871C71.6902 9.31955 71.9134 9.68999 72.1978 9.99968C72.4958 10.2959 72.8346 10.5245 73.2138 10.6861C73.6067 10.8477 74.0268 10.9287 74.4738 10.9287C74.9208 10.9287 75.3339 10.8477 75.7132 10.6861C76.106 10.5245 76.4448 10.2959 76.7292 9.99968C77.0272 9.68999 77.2574 9.31957 77.4199 8.88871C77.5825 8.44429 77.6639 7.94579 77.6639 7.39362C77.6639 6.84146 77.5825 6.3497 77.4199 5.91875C77.2574 5.47442 77.0272 5.10401 76.7292 4.80778C76.4448 4.49808 76.106 4.26274 75.7132 4.10115C75.3339 3.93954 74.9208 3.85855 74.4738 3.85855Z" fill="#DB773D"/>
</svg>
