<svg width="24" height="24" viewBox="0 0 24 24" fill="none" xmlns="http://www.w3.org/2000/svg">
<path d="M11.293 3.29297C11.6835 2.90245 12.3165 2.90245 12.707 3.29297C13.0975 3.68349 13.0975 4.31651 12.707 4.70703L6.41405 11H20C20.5523 11 21 11.4477 21 12C21 12.5523 20.5523 13 20 13H6.41405L12.707 19.293L12.7754 19.3691C13.0957 19.7619 13.0731 20.3409 12.707 20.707C12.3409 21.0731 11.7619 21.0957 11.3691 20.7754L11.293 20.707L3.29295 12.707C2.90243 12.3165 2.90243 11.6835 3.29295 11.293L11.293 3.29297Z" fill="black"/>
</svg>
