<svg width="24" height="24" viewBox="0 0 24 24" fill="none" xmlns="http://www.w3.org/2000/svg">
<path d="M12.9091 11.9999C12.9089 11.4978 12.5019 11.0906 11.9998 11.0906H4.7258C4.22373 11.0906 3.8167 11.4978 3.81655 11.9999V19.2739C3.81655 19.7761 4.22364 20.1831 4.7258 20.1831H11.9998C12.502 20.1831 12.9091 19.7761 12.9091 19.2739V11.9999ZM6.55319 16.5461C7.05526 16.5461 7.4623 16.9533 7.46244 17.4554C7.46244 17.9576 7.05535 18.3646 6.55319 18.3646H6.54431C6.04214 18.3646 5.63506 17.9576 5.63506 17.4554C5.6352 16.9533 6.04223 16.5461 6.54431 16.5461H6.55319ZM10.1902 12.9091C10.6923 12.9091 11.0993 13.3163 11.0995 13.8184C11.0995 14.3205 10.6924 14.7276 10.1902 14.7276H10.1813C9.67915 14.7276 9.27207 14.3205 9.27207 13.8184C9.27221 13.3163 9.67924 12.9091 10.1813 12.9091H10.1902ZM20.1795 9.27211C20.1795 8.99825 20.0794 8.73444 19.899 8.52891L15.4095 4.11051L15.3296 4.04391C15.1355 3.89901 14.8988 3.82015 14.6548 3.82015C14.3782 3.82017 14.1118 3.92224 13.9053 4.10607L10.8242 7.18723C10.4691 7.54231 9.89353 7.54231 9.53845 7.18723C9.1835 6.83213 9.18341 6.25653 9.53845 5.90149L12.648 2.79192L12.6818 2.75995C13.2229 2.27199 13.9261 2.00167 14.6548 2.00165C15.2923 2.00165 15.9103 2.20825 16.4173 2.5868L16.6278 2.75995L16.6562 2.78659L21.2025 7.26004C21.2154 7.27274 21.2285 7.28655 21.2406 7.3C21.7283 7.84108 21.998 8.54368 21.998 9.27211C21.998 10.0007 21.7285 10.7039 21.2406 11.2451C21.2302 11.2567 21.2188 11.2678 21.2078 11.2789L18.0254 14.4612C17.6703 14.8163 17.0947 14.8163 16.7397 14.4612C16.3847 14.1061 16.3846 13.5305 16.7397 13.1755L19.9016 10.0127C20.0804 9.80751 20.1795 9.54468 20.1795 9.27211ZM17.4642 8.36286C17.9663 8.36286 18.3733 8.77007 18.3735 9.27211C18.3735 9.77428 17.9664 10.1814 17.4642 10.1814H17.4553C16.9532 10.1814 16.5461 9.77428 16.5461 9.27211C16.5462 8.77007 16.9533 8.36286 17.4553 8.36286H17.4642ZM14.7365 5.63511C15.2385 5.63511 15.6456 6.04232 15.6457 6.54436C15.6457 7.04652 15.2386 7.45361 14.7365 7.45361H14.7276C14.2254 7.45361 13.8183 7.04652 13.8183 6.54436C13.8185 6.04232 14.2255 5.63511 14.7276 5.63511H14.7365ZM14.7276 19.2739C14.7276 20.7804 13.5063 22.0016 11.9998 22.0016H4.7258C3.21931 22.0016 1.99805 20.7804 1.99805 19.2739V11.9999C1.99819 10.4935 3.21939 9.27211 4.7258 9.27211H11.9998C13.5062 9.27211 14.7274 10.4935 14.7276 11.9999V19.2739Z" fill="black"/>
</svg>
