<svg width="16" height="16" viewBox="0 0 16 16" fill="none" xmlns="http://www.w3.org/2000/svg">
<path d="M9.12277 8.02856C9.12277 6.7507 8.61514 5.52518 7.71155 4.62159C6.80797 3.71801 5.58245 3.21038 4.30459 3.21038C3.36848 3.21038 2.6609 3.70596 2.20936 4.38051C1.7654 5.04335 1.55134 5.89342 1.55134 6.70563V9.3515C1.55134 10.1637 1.7654 11.0138 2.20936 11.6759C2.6609 12.3512 3.36779 12.8467 4.30459 12.8467C5.58245 12.8467 6.80797 12.3391 7.71155 11.4355C8.61514 10.5319 9.12277 9.30642 9.12277 8.02856Z" fill="#F9EBDB"/>
<path d="M12.3923 4.07067C13.3711 4.07067 14.2852 4.77825 14.2852 5.79145C14.2852 6.80464 13.3711 7.51223 12.3923 7.51223C11.4135 7.51223 10.4994 6.80464 10.4994 5.79145C10.4994 4.77825 11.4135 4.07067 12.3923 4.07067ZM9.98321 0.457031C10.962 0.457031 11.8761 1.16462 11.8761 2.17781C11.8761 3.19101 10.962 3.89859 9.98321 3.89859C9.00443 3.89859 8.09035 3.19101 8.09035 2.17781C8.09035 1.16462 9.00443 0.457031 9.98321 0.457031ZM12.3923 8.54469C13.3711 8.54469 14.2852 9.25228 14.2852 10.2655C14.2852 11.2787 13.3711 11.9863 12.3923 11.9863C11.4135 11.9863 10.4994 11.2787 10.4994 10.2655C10.4994 9.25228 11.4135 8.54469 12.3923 8.54469ZM9.98321 12.1583C10.962 12.1583 11.8761 12.8659 11.8761 13.8791C11.8761 14.8923 10.962 15.5999 9.98321 15.5999C9.00443 15.5999 8.09035 14.8923 8.09035 13.8791C8.09035 12.8659 9.00443 12.1583 9.98321 12.1583Z" fill="#F9EBDB"/>
</svg>
